<?xml version="1.0" encoding="utf-8"?>
<!-- Generator: Adobe Illustrator 18.1.0, SVG Export Plug-In . SVG Version: 6.00 Build 0)  -->
<!DOCTYPE svg PUBLIC "-//W3C//DTD SVG 1.1//EN" "http://www.w3.org/Graphics/SVG/1.1/DTD/svg11.dtd">
<svg version="1.1" id="Layer_1" xmlns="http://www.w3.org/2000/svg" xmlns:xlink="http://www.w3.org/1999/xlink" x="0px" y="0px"
	 viewBox="1252 42 1302 710" enable-background="new 1252 42 1302 710" xml:space="preserve">
<g>
	<path d="M557,126.7c10.5,1.8,20.9,4,30.7,8.3c18.1,8.1,31.9,20.6,39.8,39.1c5.8,13.6,7,28.1,5.3,42.7c-1.5,13.2-5.9,25.5-10.3,37.9
		c-0.5,1.3-1.2,2.5-1.9,3.6c-16.2,31.1-32.4,62.3-48.6,93.5c-0.6,1.2-1.4,2.4-2,3.6c-0.7,1.4-1.8,2-3.2,2c-1.4,0-2.7,0-4.1,0
		c-34.3,0.1-68.5,0.2-102.8,0.2c-1.6,0-3.1,0-4.7-0.1c-1.1-0.1-1.6-1-1.2-2c0.7-1.7,1.6-3.2,2.5-4.8c14.3-27.8,28.8-55.6,43.1-83.3
		c2.1-4,4.1-8.1,4.9-12.7c2-11.5-4.4-20.2-15.9-21.7c-3.1-0.4-6.4-0.4-9.5-0.4c-77.9,0.2-155.7,0.3-233.5,0.5c-5.7,0-11.4,0-17,0
		c-1.4,0-2.7,0.3-4-0.5c-1-1.5,0.2-2.6,0.8-3.6c3.7-7.3,7.6-14.4,11.3-21.7c0.7-1.4,1.5-2.8,2.1-4.3c2.5-5.8,1.5-11.1-2.7-15.8
		c-1.4-1.5-2.9-2.7-4.5-4.1c-20.1-17.7-40.3-35.3-60.3-53c-1.4-1.2-2.6-2.6-3.8-3.8c126.6-0.3,253.3-0.6,379.9-0.8
		c1.8,1.4,3.8,0.4,5.7,0.7C554.4,126.2,555.8,125.8,557,126.7z"/>
	<path fill="#ECEFF0" d="M520,491.9c0-0.4,0.1-0.8,0.5-1c1.7-0.2,3.3-0.6,4.8,0.5c0,0.2,0,0.3,0,0.5
		C523.6,491.9,521.8,491.9,520,491.9z"/>
	<path fill="#EAEDEE" d="M559.3,491.9c0-0.2,0-0.4,0-0.5c1.8-0.9,3.4-1,5.2,0c0,0.2,0,0.4,0,0.5C562.8,491.9,561,491.9,559.3,491.9z
		"/>
	<path fill="#7A7596" d="M552.9,126.6c-2,0.2-4,0.7-5.6-1.2c1.8,0,3.6,0,5.4,0c0.4,0.2,0.6,0.5,0.5,0.8
		C553.2,126.5,553,126.6,552.9,126.6z"/>
	<path fill="#BFB4C5" d="M552.9,126.6c-0.1-0.4-0.1-0.8-0.1-1.2c1.4,0,2.7,0,4.1,0c0,0.4,0,0.8,0.1,1.3
		C555.6,126.7,554.3,126.6,552.9,126.6z"/>
	<path fill="#010101" d="M636,391c0.1,2.7-1,3.9-1.7,5.3c-16.7,32.2-33.4,64.4-50.2,96.5c-0.5,1-1.1,2-1.6,3c-0.7,1.4-1.8,2-3.2,2.1
		c-1.6,0-3.1,0-4.8,0.1c-83.7,0.2-167.4,0.4-251.1,0.5c-14.6,0-29-1.5-42.9-6.2c-13.4-4.5-25.2-11.3-34.9-21.7
		c-11.9-12.9-17.9-28.2-19-45.6c-1.2-17.1,2.4-33.4,8.5-49.2c2.4-6.1,5.2-12.1,8.2-17.9c14.6-28.4,29.5-56.7,44.2-85.1
		c3.8-7.4,2.3-6.3,10.2-6.3c31.3-0.1,62.6-0.2,94-0.2c1.8,0,3.6-0.2,5.4,0.2c4.5,0.8,6.7,4.9,5,9.2c-0.8,1.9-1.8,3.6-2.7,5.5
		c-13.3,25.5-26.5,51.1-39.8,76.7c-1.7,3.2-3.2,6.5-4,10c-2.8,12.6,4,22.2,16.8,23.5c2.7,0.3,5.4,0.2,8.1,0.2
		c82.6-0.2,165.1-0.4,247.7-0.5C630.8,391,633.3,391,636,391z"/>
	<path fill="#EAEDEE" d="M559.7,490.5c-0.1,0.2-0.3,0.3-0.4,0.5C559.4,490.8,559.6,490.6,559.7,490.5z"/>
</g>
<image overflow="visible" enable-background="new    " width="5926" height="3115" xlink:href="7A855D8D1BE47819.jpg"  transform="matrix(0.119 0 0 0.119 47.9487 -445.9148)">
</image>
<path fill="#030F46" enable-background="new    " d="M1482.8,626.8c3.5-6.8,6.5-12.6,9.5-18.5c11.2-21.4,22.4-42.7,33.6-64.1
	c5.5-10.5,10.9-21.1,16.5-31.5c0.7-1.2,2.5-2.6,3.8-2.6c36.7-0.1,73.4-0.1,110.7-0.1c-2.1,4.2-3.9,8-5.9,11.8
	c-4.9,9.3-9.7,18.7-14.9,27.9c-0.7,1.2-2.9,2.1-4.4,2.2c-19.3,0.1-38.6,0.2-57.9,0c-3.3,0-4.8,1.2-6.2,4
	c-4.5,9.2-9.2,18.2-14.1,27.8c2.2,0,3.7,0,5.3,0c42.1,0,84.2-0.1,126.3,0.1c3.6,0,6.4-1.1,9.1-3.2c13.4-10.6,26.9-21.1,40.3-31.7
	c14.3-11.3,28.6-22.7,42.9-34c21.1-16.5,42.2-33,63.3-49.4c4.6-3.6,9-7.3,13.6-10.8c1.5-1.1,3.6-2.1,5.4-2.1
	c71.5-0.1,143-0.1,214.5-0.1c1,0,1.9,0.1,3.5,0.3c-4.1,7.8-7.9,15.2-11.7,22.6c-2.9,5.6-6,11.2-8.8,16.9c-1.3,2.7-2.8,3.7-5.9,3.7
	c-17.2-0.2-34.5,0-51.8-0.2c-2.5,0-4.1,0.8-5.1,2.9c-12.7,24.8-25.4,49.6-38.1,74.3c-8.7,16.8-17.4,33.5-26.2,50.2
	c-0.8,1.4-2.5,3.3-3.9,3.4c-14.7,0.2-29.5,0.2-45,0.2c22.6-43.8,45-87.1,67.7-130.9c-2.4,0-4,0-5.6,0c-22.5,0-45,0.2-67.5-0.1
	c-5.1-0.1-8.9,1.5-12.6,4.5c-21.7,17.3-43.4,34.7-65.3,51.9c-16.9,13.4-34.1,26.5-51,39.8c-10.7,8.4-21.2,17.1-31.9,25.6
	c-3.6,2.9-7.2,5.8-11.1,8.3c-1.4,0.9-3.6,0.9-5.4,0.9c-69.9,0-139.8,0-209.7,0C1487,626.8,1485.4,626.8,1482.8,626.8z"/>
<path fill="#030F46" enable-background="new    " d="M1923.1,211c7.9-15.1,15.2-29.3,22.6-43.5c2.7-5.2,5.7-10.4,7.9-15.8
	c4-9.6-1.9-17.2-13.1-17.2c-26.5-0.1-52.9,0-79.4,0c-24.3,0-48.5,0-72.8,0c-1.5,0-3.1,0-5.4,0c2.7-5.2,5-9.9,7.5-14.4
	c4.2-7.7,3.4-10.7-3.3-16.5c-10-8.6-19.9-17.5-29.8-26.2c-2.6-2.3-5.2-4.5-8.9-7.7c2.7,0,4.1,0,5.5,0c73.7,0,147.3-0.1,221,0.1
	c14.2,0,28.1,2.4,39.8,11.4c14.9,11.3,20.1,26.4,17.8,44.8c-1.9,15-8.7,27.8-15.7,40.7c-6.5,11.9-12.5,24.1-18.7,36.1
	c-0.2,0.4-0.4,0.8-0.5,1.2c-2,5.2-5.1,7.5-11.4,7.3c-19.1-0.6-38.3-0.2-57.4-0.2C1927.3,211,1925.8,211,1923.1,211z"/>
<path fill="#A40C34" enable-background="new    " d="M2034.9,232.1c-1.6,3.2-2.9,5.9-4.2,8.5c-9.4,17.9-18.8,35.8-28,53.8
	c-1.3,2.6-2.9,3.1-5.5,3c-51.3-0.1-102.6,0.1-153.9-0.1c-14.6-0.1-28.8-2.9-41-12c-9.2-6.9-14.7-16.1-16.8-27.4
	c-3.4-17.7,2.8-33.4,10.7-48.6c6.9-13.4,13.9-26.6,20.8-39.9c0.7-1.3,1.6-2.4,2-3.8c2.4-8.9,8.3-10.5,16.9-10.1
	c16.8,0.8,33.6,0.2,50.4,0.2c5.9,0,7.3,2.4,4.6,7.6c-8.4,16.2-17,32.2-25.3,48.5c-1.5,3-2.7,6.6-2.7,9.8c0.1,6.3,5.7,10.4,13.2,10.4
	c51.2,0,102.3,0,153.5,0C2031,232.1,2032.6,232.1,2034.9,232.1z"/>
<path fill="#030F46" enable-background="new    " d="M1413.3,626.2c4.5-8.8,8.9-17.6,13.5-26.4c6.3-12,12.7-24,19-36
	c8.5-16.1,17-32.1,25.3-48.3c1.9-3.7,3.7-7.6,4.3-11.7c0.8-4.6-2-7.8-6.6-7.8c-19.6-0.2-39.2-0.2-58.8,0.1c-1.5,0-3.5,2.6-4.4,4.5
	c-5.6,10.6-10.9,21.3-16.5,31.9c-8.6,16.6-17.3,33.2-26,49.8c-7.3,13.9-14.5,27.9-21.9,41.7c-0.6,1.2-2.2,2.6-3.3,2.6
	c-14.8,0.2-29.5,0.1-45.1,0.1c1-2.1,1.6-3.7,2.4-5.3c13.5-25.5,27-51,40.4-76.6c10.4-19.9,20.7-39.9,31.1-59.9
	c1.6-3.1,1.7-6-1.3-8.6c-7.3-6.3-14.5-12.7-21.8-19.1c-1.4-1.2-2.6-2.7-4.4-4.5c1.5-0.2,2.5-0.4,3.6-0.4c48.4,0,96.8-0.1,145.1,0
	c12.1,0,23.7,2.3,32.5,11.8c6.8,7.4,8.3,16.1,7.2,25.9c-1.7,14.8-10.5,26.4-16.8,39.1c-10.6,21.3-21.8,42.3-32.8,63.4
	c-5.5,10.6-11.1,21.2-16.8,31.8c-0.6,1-2,2.3-3.1,2.3c-14.6,0.1-29.2,0-43.8,0C1414.1,626.7,1413.8,626.5,1413.3,626.2z"/>
<path fill="#A40C34" enable-background="new    " d="M2170.8,453c27,0,52.7,0,78.8,0c-3.7,39.6-7.4,78.8-11.1,118.7
	c3.1-2.8,5.6-5,8-7.4c13.3-13.5,26.5-27.1,39.7-40.7c12.3-12.6,24.6-25.1,36.8-37.7c9.8-10,19.6-20,29.2-30.2
	c2.1-2.2,4.2-3.2,7.2-3.1c15.2,0.1,30.4,0.1,45.6,0.1c1.3,0,2.5,0.1,4.6,0.2c-1.5,1.6-2.5,2.8-3.6,3.9
	c-25.6,26.3-51.2,52.6-76.8,78.9c-17.1,17.5-34.1,35.1-51.2,52.6c-11.7,12-23.4,24-35.2,36c-1.1,1.1-2.9,2.3-4.3,2.3
	c-17.1,0.2-34.2,0.1-51.3,0.1c-0.6,0-1.1-0.2-1.6-0.3c0.8-8.3,1.4-16.5,2.2-24.7c1.1-11.2,2.3-22.5,3.4-33.7
	c1-10.8,1.8-21.7,2.8-32.5c1-10.8,2.3-21.6,3.3-32.4c0.7-7.4,1.4-14.7,1.9-22.1c0.3-5.2-4.6-6.7-7.5-9.4
	C2185.2,465.4,2178.4,459.7,2170.8,453z"/>
<path fill="#A40C34" enable-background="new    " d="M2524.9,583.9c-6,11.3-12.2,21.6-16.9,32.6c-3.6,8.6-8.8,10.6-17.8,10.4
	c-32.9-0.6-65.8-0.1-98.7-0.5c-13.7-0.1-30-7.8-33.1-25.8c-1.4-8.3-0.1-16.3,3.2-23.8c3.7-8.3,8-16.3,12.2-24.4
	c10-19.3,20-38.5,30-57.7c6.7-12.8,13.5-25.5,20.1-38.4c1.4-2.8,3.2-3.8,6.4-3.7c11.5,0.2,23.1,0.1,34.6,0.1c1.9,0,3.7,0.3,6.8,0.5
	c-1.9,4.4-3.3,8.2-5.2,11.8c-14.1,27.2-28.4,54.4-42.6,81.5c-4.1,7.8-7.9,15.7-12.2,23.4c-4.5,8-0.7,13.9,8.6,13.9
	c32.9-0.1,65.8,0,98.7,0C2520.8,583.9,2522.4,583.9,2524.9,583.9z"/>
<path fill="#A40C34" enable-background="new    " d="M2173.7,583.9c-1.3,14.4-2.5,28.3-3.8,42.6c-1.5,0.1-2.9,0.2-4.3,0.2
	c-35.8,0-71.6,0.3-107.4-0.3c-15.2-0.3-28.6-8.6-32-24.7c-1.9-8.8-0.6-17.7,3.5-25.8c6.3-12.5,12.7-25,19.1-37.4
	c7.5-14.6,15.1-29.2,22.8-43.8c6.7-12.9,13.6-25.8,20.2-38.8c1.1-2.2,2.5-3.2,5-3.2c12.4,0.1,24.8,0,37.3,0.1c5.2,0,5.9,1.2,3.4,6
	c-12.4,23.7-24.9,47.4-37.3,71.1c-7,13.3-13.8,26.6-20.8,39.9c-4.2,8.2-0.7,14.1,8.5,14.1c26.9,0,53.8,0,80.7,0
	C2170,583.9,2171.6,583.9,2173.7,583.9z"/>
<path fill="#030F46" enable-background="new    " d="M1529.3,452.3c13.6,0,27.1,0,40.7,0c33.2,0,66.3,0.1,99.5,0.1
	c32.9,0,65.8,0.1,98.6-0.1c4.1,0,6.5,1,8.3,4.9c4.6,9.6,9.7,19,14.8,28.9c-12.6,10-25.3,19.9-38.1,30.1c-3-6.1-5.7-11.6-8.4-17.2
	c-1.2-2.5-3.1-3.2-5.9-3.2c-60.8,0.1-121.6,0.1-182.4,0.1c-1.6,0-3.1,0-5.5,0c1.9-3.4,3.5-6.1,5-8.8c3.3-6.1,3.1-7.8-2.1-12.3
	c-7.8-6.7-15.6-13.4-23.4-20c-0.6-0.5-1.3-0.7-2-1C1528.7,453.2,1529,452.8,1529.3,452.3z"/>
<path fill="#030F46" enable-background="new    " d="M1785.9,579c12.7-10,25.2-19.9,38.1-30c6.9,13.3,13.5,26.1,20.1,38.9
	c6.6,12.7,13.3,25.5,20.1,38.6c-1.7,0.1-2.9,0.3-4.1,0.3c-15.2,0-30.4,0.1-45.6-0.1c-1.7,0-4.1-1-4.8-2.3
	C1801.7,609.5,1793.9,594.4,1785.9,579z"/>
<path fill="#C3C7C7" enable-background="new    " d="M1883,717.6c3-6.1,5.8-11.9,8.7-17.5c4.4-8.5,9.1-16.8,13.5-25.3
	c3.8-7.4,3.7-7.4,12.7-6.6c0.8,5.4,1.6,11,2.3,16.5c0.7,5.5,1.3,11.1,2,17c5-9.5,10-18.4,14.3-27.6c2.2-4.5,4.5-7.5,10-6.3
	c0.6,0.1,1.2,0,2.5,0c-3.6,7.1-7.1,13.9-10.5,20.6c-4.5,8.7-9.1,17.4-13.4,26.2c-2.6,5.3-6.9,2.3-10.7,3.1
	c-1.6-11.3-3.2-22.3-4.8-33.7c-5,9.4-9.8,18.4-14.6,27.4C1891.6,718.3,1891.6,718.3,1883,717.6z"/>
<path fill="#C3C7C7" enable-background="new    " d="M1467.1,717.9c-6.3,0.8-12-1-14.4-7.8c-1.1-3.1-1.4-7.1-0.6-10.3
	c4.8-18,24.4-32.3,41.3-32.7c12.6-0.3,18.9,8.1,15.1,20C1504,701.9,1483.7,719.4,1467.1,717.9z M1462.3,700.9c0,5.9,4.3,9.8,10,9.2
	c11.7-1.4,23.8-12.1,26.7-23.7c1.1-4.1-1.1-8.7-5.2-9.6c-3.2-0.7-6.9-0.7-10.1,0C1473.1,679,1462.3,691.4,1462.3,700.9z"/>
<path fill="#C3C7C7" enable-background="new    " d="M1575.2,717.7c-3.4,0-6.5,0-10,0c0-6.3,0-12.4,0-18.6
	c-4.7-0.9-8.5-1.2-10.5,4.1c-1.1,3-3,5.7-4.4,8.5c-3.6,6.8-3.6,6.9-12.2,5.9c8.7-16.6,17.2-33,25.9-49.6c6.5,0,13.2-0.2,19.9,0.1
	c7,0.3,9.9,5,7.6,11.7c-2.6,7.4-7.8,12.3-14.4,16.2c-0.9,0.5-1.7,2-1.7,3C1575.1,705,1575.2,711.1,1575.2,717.7z M1561.2,690.7
	c7.8,0.7,14.4,0.8,18.6-6.2c3.5-5.8,2.4-8.2-4.3-8.6c-2.4-0.1-5.9,0-7,1.5C1565.6,681.2,1563.8,685.9,1561.2,690.7z"/>
<path fill="#C3C7C7" enable-background="new    " d="M2315.6,668.1c3.1,0,5.9,0,9.3,0c-1.3,2.6-2.4,4.9-3.6,7.1
	c-5.7,10.3-10.9,20.8-17.1,30.7c-5.6,8.9-21,14.3-31,11.9c-5.4-1.3-8.7-7.1-6.6-12.6c2.1-5.7,4.8-11.2,7.5-16.6
	c2.7-5.3,6.1-10.3,8.4-15.7c1.7-4,3.9-5.7,8.1-4.9c1,0.2,2,0,3.6,0c-4.1,8.1-8.1,15.7-12,23.4c-1.7,3.2-3.6,6.3-5,9.7
	c-2.8,6.7,1,9.2,6.6,8.9c6.3-0.4,11.6-3.8,14.8-9.5c3-5.3,5.6-10.7,8.5-16.1C2309.8,678.9,2312.6,673.6,2315.6,668.1z"/>
<path fill="#C3C7C7" enable-background="new    " d="M1366.8,717.4c2.7-5.2,5.3-10.5,8-15.7c5.4-10.3,10.8-20.5,16.1-30.8
	c1.2-2.3,2.5-3.1,5-3c5.4,0.2,10.8,0,16.2,0.1c7.1,0.1,10.5,4.8,8.6,11.7c-3.1,11.1-14.6,21.6-27.5,20.6c-5.9-0.4-10.5,0.3-11.9,7.1
	c-0.3,1.3-1.7,2.4-2,3.8C1377.6,717.5,1373.6,719.3,1366.8,717.4z M1389.2,692.2c8.4,1.2,15.5,0.5,19.8-7.2c1.4-2.6,3.4-5.6,0.1-8.1
	c-3.2-2.3-11.1-1.2-12.6,1.5C1394,682.7,1391.8,687.2,1389.2,692.2z"/>
<path fill="#C3C7C7" enable-background="new    " d="M2479.8,668c-3.3,7.8-3.3,7.8-10.8,7.8c-2.6,0-5.3,0.3-7.9-0.1
	c-4.5-0.7-7,1.2-8.4,5.3c-0.8,2.4-2.1,4.7-3.5,7.5c5.4,0,10.4,0,15.6,0c-2.6,8.2-2.6,8.8-10,8.1c-7.6-0.8-12.5,1.4-14.7,8.9
	c-0.3,1-0.9,2-1.6,3.4c7.1,0,13.8,0,20.5,0c-1.5,7.6-3,8.9-10,8.9c-7.9,0-15.8,0-24.3,0c3.2-6.4,6-12.5,9.1-18.4
	c4.9-9.4,10-18.6,14.8-28c1.3-2.6,2.9-3.7,6-3.6C2462.8,668.1,2471.1,668,2479.8,668z"/>
<path fill="#C3C7C7" enable-background="new    " d="M1299.9,704.7c6.4,6.1,13.9,6.3,18.4,0.9c2.9-3.5,2.5-5.8-1.5-8
	c-0.8-0.4-1.5-0.8-2.3-1.3c-8.8-4.9-10.2-9.7-4.6-17.9c4.8-7,18.1-14.3,28-10.5c2.3,0.9,4.3,2.5,7,4.1c-3.2,3-5.7,5.3-8.2,7.6
	c-6-5-12.3-5.3-17.1-0.7c-3.7,3.5-3.5,5.8,0.8,8.5c2.1,1.3,4.4,2.4,6.4,3.8c4,2.8,5,6.7,2.8,11.1c-6.2,12.3-16.8,17-29.9,15.4
	c-1.4-0.2-2.7-1-4-1.7c-4.7-2.7-4.8-4.6-0.5-7.9C1296.9,707,1298.4,705.9,1299.9,704.7z"/>
<path fill="#C3C7C7" enable-background="new    " d="M1750.9,671.7c-3.6,3.4-6,5.7-8.3,7.9c-7.7-5.2-13.7-5-18.2,0.3
	c-2.5,3-2.3,4.9,1,7.1c2.2,1.4,4.5,2.7,6.6,4.2c4.3,2.9,5.2,6.6,3.1,11.3c-5.1,11.2-17.8,17.8-29.9,15.2c-3-0.7-5.5-3.2-9.1-5.3
	c3.6-3.1,6.2-5.3,9.2-7.9c3.2,4.1,7.3,6.1,12.5,4.6c2.1-0.6,4.4-1.7,6-3.2c3-2.8,2.4-6.1-1.2-8.1c-1.3-0.7-2.5-1.4-3.8-2.1
	c-7.6-4.4-8.9-8.8-3.8-16.1c6.2-8.8,15-13.3,25.8-12.3C1744.1,667.6,1747,669.9,1750.9,671.7z"/>
<path fill="#C3C7C7" enable-background="new    " d="M1970,712.2c3.8-3,6.5-5.1,9.4-7.5c4.1,4.6,9.1,6.6,14.7,3.6
	c2.2-1.2,4.4-3.8,5.1-6.3c0.4-1.2-2.3-4.1-4.1-5c-10.6-5.3-12.4-11.8-2.6-21.3c7-6.8,15.2-10.6,25.2-7.7c2.3,0.7,4.2,2.3,6.7,3.7
	c-2.8,3-5.2,5.6-7.7,8.3c-4.3-3.9-9-5.6-13.8-3.2c-2.5,1.2-4.7,3.8-6,6.3c-0.4,0.7,2.8,3.3,4.4,5c0.3,0.3,0.7,0.6,1,0.8
	c9.2,5.3,10.1,11,3.4,19.1c-6.8,8.3-15.8,11.3-26.1,9.6C1976.6,717.2,1973.7,714.4,1970,712.2z"/>
<path fill="#C3C7C7" enable-background="new    " d="M2213.7,675.7c-5.5,0-10.4,0-15.4,0c2.3-7.8,2.3-7.8,9.8-7.8
	c11.5,0,23,0,34.5,0c0,0.6,0.1,0.9,0,1.1c-1.4,5.8-5.2,7.8-10.9,6.7c-6.5-1.3-10.2,1.2-12.9,7.4c-4.2,9.5-9.5,18.6-14.2,27.9
	c-3.7,7.2-3.6,7.2-12.6,6.5C2199.2,703.7,2206.2,690.1,2213.7,675.7z"/>
<path fill="#C3C7C7" enable-background="new    " d="M2362.8,675.9c1.5-6.7,5.2-8.4,11.2-8.1c11.1,0.5,22.2,0.2,33.3,0.2
	c-1.4,6.7-2.9,8.4-9.1,7.7c-8-1-12.3,2-15.4,9.4c-4.5,10.5-10.2,20.4-15.6,30.5c-0.6,1.1-2.3,2-3.6,2.3c-2,0.4-4,0.1-6.9,0.1
	c7.4-14.2,14.5-27.8,21.9-42C2372.9,675.9,2367.9,675.9,2362.8,675.9z"/>
<path fill="#C3C7C7" enable-background="new    " d="M1630,717.4c7.2-13.8,14.3-27.4,21.6-41.4c-5.2,0-10.2,0-15.3,0
	c1.4-7.3,2.3-8,9-8c11.7,0,23.3,0,35.1,0c-2,7.7-2.2,8.4-9.4,7.7c-7.9-0.9-12,1.9-15.1,9.3c-3.8,9.1-9.5,17.3-13.4,26.3
	C1640.1,717.2,1636.7,719.3,1630,717.4z"/>
<path fill="#C3C7C7" enable-background="new    " d="M2078.2,675.7c-5.7,0-10.6,0-15.5,0c2.7-7.7,2.7-7.7,9.8-7.7
	c10.1,0,20.1,0,30.2,0c1.4,0,2.8,0,4.3,0c-2.1,7.8-2.2,8.5-9.3,7.7c-8.1-0.9-12.2,2.2-15.3,9.5c-3.9,9.2-9.1,17.8-13.7,26.6
	c-3.5,6.8-3.5,6.8-12.2,5.7C2063.6,703.6,2070.7,690,2078.2,675.7z"/>
<path fill="#C3C7C7" enable-background="new    " d="M2124.1,717.6c2.9-5.5,5.4-10.5,8-15.4c4.8-9.1,9.7-18.1,14.3-27.2
	c3.8-7.4,3.6-7.5,12.7-6.6c-3.2,6.2-6.2,12.2-9.3,18.2c-4.3,8.4-8.8,16.7-13.1,25C2133.1,718.3,2133.2,718.3,2124.1,717.6z"/>
<path fill="#C3C7C7" enable-background="new    " d="M1825.4,717.2c8.6-16.4,17.1-32.8,25.6-49.1c3,0,5.7,0,9,0
	c-3.2,6.4-6,12.5-9.1,18.5c-5,9.6-10.2,19.2-15.2,28.8C1833.1,720.4,1829.1,716.6,1825.4,717.2z"/>
</svg>
