<?xml version="1.0" encoding="utf-8"?>
<!-- Generator: Adobe Illustrator 18.1.1, SVG Export Plug-In . SVG Version: 6.00 Build 0)  -->
<svg version="1.1" id="Layer_1" xmlns="http://www.w3.org/2000/svg" xmlns:xlink="http://www.w3.org/1999/xlink" x="0px" y="0px"
	 viewBox="0 0 806.7 462" enable-background="new 0 0 806.7 462" xml:space="preserve">
<g>
	<path d="M567.3,48.4c10.7,1.8,21.3,4.1,31.3,8.5c18.4,8.2,32.5,21,40.5,39.8c5.9,13.9,7.1,28.6,5.4,43.5c-1.5,13.4-6,26-10.5,38.6
		c-0.5,1.3-1.2,2.5-1.9,3.7c-16.5,31.7-33,63.5-49.5,95.2c-0.6,1.2-1.4,2.4-2,3.7c-0.7,1.4-1.8,2-3.3,2c-1.4,0-2.8,0-4.2,0
		c-34.9,0.1-69.8,0.2-104.7,0.2c-1.6,0-3.2,0-4.8-0.1c-1.1-0.1-1.6-1-1.2-2c0.7-1.7,1.6-3.3,2.5-4.9c14.6-28.3,29.3-56.6,43.9-84.8
		c2.1-4.1,4.2-8.2,5-12.9c2-11.7-4.5-20.6-16.2-22.1c-3.2-0.4-6.5-0.4-9.7-0.4c-79.3,0.2-158.6,0.3-237.8,0.5c-5.8,0-11.6,0-17.3,0
		c-1.4,0-2.8,0.3-4.1-0.5c-1-1.5,0.2-2.6,0.8-3.7c3.8-7.4,7.7-14.7,11.5-22.1c0.7-1.4,1.5-2.9,2.1-4.4c2.5-5.9,1.5-11.3-2.7-16.1
		c-1.4-1.5-3-2.8-4.6-4.2c-20.5-18-41-36-61.4-54c-1.4-1.2-2.6-2.6-3.9-3.9c129-0.3,258-0.6,387-0.8c1.8,1.4,3.9,0.4,5.8,0.7
		C564.7,47.9,566.1,47.5,567.3,48.4z"/>
	<path fill="#ECEFF0" d="M529.7,420.4c0-0.4,0.1-0.8,0.5-1c1.7-0.2,3.4-0.6,4.9,0.5c0,0.2,0,0.3,0,0.5
		C533.3,420.4,531.5,420.4,529.7,420.4z"/>
	<path fill="#EAEDEE" d="M569.7,420.3c0-0.2,0-0.4,0-0.5c1.8-0.9,3.5-1,5.3,0c0,0.2,0,0.4,0,0.5
		C573.2,420.3,571.4,420.3,569.7,420.3z"/>
	<path fill="#7A7596" d="M563.2,48.3c-2,0.2-4.1,0.7-5.7-1.2c1.8,0,3.7,0,5.5,0c0.4,0.2,0.6,0.5,0.5,0.8
		C563.5,48.2,563.3,48.3,563.2,48.3z"/>
	<path fill="#BFB4C5" d="M563.2,48.3c-0.1-0.4-0.1-0.8-0.1-1.2c1.4,0,2.8,0,4.2,0c0,0.4,0,0.8,0.1,1.3
		C565.9,48.4,564.6,48.3,563.2,48.3z"/>
	<path fill="#010101" d="M647.8,317.6c0.1,2.7-1,4-1.7,5.4c-17,32.8-34,65.6-51.1,98.3c-0.5,1-1.1,2-1.6,3.1c-0.7,1.4-1.8,2-3.3,2.1
		c-1.6,0-3.2,0-4.9,0.1c-85.3,0.2-170.5,0.4-255.8,0.5c-14.9,0-29.5-1.5-43.7-6.3c-13.6-4.6-25.7-11.5-35.5-22.1
		c-12.1-13.1-18.2-28.7-19.4-46.4c-1.2-17.4,2.4-34,8.7-50.1c2.4-6.2,5.3-12.3,8.4-18.2c14.9-28.9,30-57.8,45-86.7
		c3.9-7.5,2.3-6.4,10.4-6.4c31.9-0.1,63.8-0.2,95.7-0.2c1.8,0,3.7-0.2,5.5,0.2c4.6,0.8,6.8,5,5.1,9.4c-0.8,1.9-1.8,3.7-2.8,5.6
		c-13.5,26-27,52-40.5,78.1c-1.7,3.3-3.3,6.6-4.1,10.2c-2.9,12.8,4.1,22.6,17.1,23.9c2.7,0.3,5.5,0.2,8.3,0.2
		c84.1-0.2,168.2-0.4,252.3-0.5C642.5,317.6,645.1,317.6,647.8,317.6z"/>
	<path fill="#EAEDEE" d="M570.1,418.9c-0.1,0.2-0.3,0.3-0.4,0.5C569.8,419.2,570,419,570.1,418.9z"/>
</g>
</svg>
